<?xml version="1.0" encoding="UTF-8" standalone="no"?>
<!-- Generator: Adobe Illustrator 19.0.0, SVG Export Plug-In . SVG Version: 6.00 Build 0)  -->

<svg
   xmlns:dc="http://purl.org/dc/elements/1.1/"
   xmlns:cc="http://creativecommons.org/ns#"
   xmlns:rdf="http://www.w3.org/1999/02/22-rdf-syntax-ns#"
   xmlns:svg="http://www.w3.org/2000/svg"
   xmlns="http://www.w3.org/2000/svg"
   xmlns:sodipodi="http://sodipodi.sourceforge.net/DTD/sodipodi-0.dtd"
   xmlns:inkscape="http://www.inkscape.org/namespaces/inkscape"
   version="1.1"
   id="Capa_1"
   x="0px"
   y="0px"
   viewBox="0 0 47.94 47.94"
   style="enable-background:new 0 0 47.94 47.94;"
   xml:space="preserve"
   inkscape:version="0.91 r13725"
   sodipodi:docname="star-bonus.svg"><metadata
     id="metadata3430"><rdf:RDF><cc:Work
         rdf:about=""><dc:format>image/svg+xml</dc:format><dc:type
           rdf:resource="http://purl.org/dc/dcmitype/StillImage" /><dc:title></dc:title></cc:Work></rdf:RDF></metadata><defs
     id="defs3428" /><sodipodi:namedview
     pagecolor="#ffffff"
     bordercolor="#666666"
     borderopacity="1"
     objecttolerance="10"
     gridtolerance="10"
     guidetolerance="10"
     inkscape:pageopacity="0"
     inkscape:pageshadow="2"
     inkscape:window-width="1920"
     inkscape:window-height="1017"
     id="namedview3426"
     showgrid="false"
     inkscape:zoom="4.9228203"
     inkscape:cx="23.969999"
     inkscape:cy="23.969999"
     inkscape:window-x="-8"
     inkscape:window-y="-8"
     inkscape:window-maximized="1"
     inkscape:current-layer="layer1" /><path
     style="fill:#ED8A19;"
     d="M26.285,2.486l5.407,10.956c0.376,0.762,1.103,1.29,1.944,1.412l12.091,1.757  c2.118,0.308,2.963,2.91,1.431,4.403l-8.749,8.528c-0.608,0.593-0.886,1.448-0.742,2.285l2.065,12.042  c0.362,2.109-1.852,3.717-3.746,2.722l-10.814-5.685c-0.752-0.395-1.651-0.395-2.403,0l-10.814,5.685  c-1.894,0.996-4.108-0.613-3.746-2.722l2.065-12.042c0.144-0.837-0.134-1.692-0.742-2.285l-8.749-8.528  c-1.532-1.494-0.687-4.096,1.431-4.403l12.091-1.757c0.841-0.122,1.568-0.65,1.944-1.412l5.407-10.956  C22.602,0.567,25.338,0.567,26.285,2.486z"
     id="path3394" /><g
     id="g3396" /><g
     id="g3398" /><g
     id="g3400" /><g
     id="g3402" /><g
     id="g3404" /><g
     id="g3406" /><g
     id="g3408" /><g
     id="g3410" /><g
     id="g3412" /><g
     id="g3414" /><g
     id="g3416" /><g
     id="g3418" /><g
     id="g3420" /><g
     id="g3422" /><g
     id="g3424" /><g
     inkscape:groupmode="layer"
     id="layer1"
     inkscape:label="Layer 1"><g
       id="g3434"
       transform="matrix(0.37713229,0,0,0.37366073,26.614109,26.711312)"><circle
         style="fill:#e64c3c"
         cx="28"
         cy="28"
         r="28"
         id="circle3436" /><path
         inkscape:connector-curvature="0"
         style="fill:#3d324c"
         d="m 28,14 c 2.465,0 4.818,0.47 7,1.289 L 35,0.882 C 32.763,0.306 30.417,0 28,0 25.583,0 23.237,0.306 21,0.882 l 0,14.407 C 23.182,14.47 25.535,14 28,14 Z"
         id="path3438" /><path
         inkscape:connector-curvature="0"
         style="fill:#3d324c"
         d="m 28,42 c -2.465,0 -4.818,-0.47 -7,-1.289 l 0,14.407 c 2.237,0.576 4.583,0.882 7,0.882 2.417,0 4.763,-0.306 7,-0.882 L 35,40.711 C 32.818,41.53 30.465,42 28,42 Z"
         id="path3440" /><path
         inkscape:connector-curvature="0"
         style="fill:#3d324c"
         d="m 42,28 c 0,2.465 -0.47,4.818 -1.289,7 l 14.407,0 C 55.694,32.763 56,30.417 56,28 56,25.583 55.694,23.237 55.118,21 L 40.711,21 C 41.53,23.182 42,25.535 42,28 Z"
         id="path3442" /><path
         inkscape:connector-curvature="0"
         style="fill:#3d324c"
         d="m 14,28 c 0,-2.465 0.47,-4.818 1.289,-7 L 0.882,21 C 0.306,23.237 0,25.583 0,28 c 0,2.417 0.306,4.763 0.882,7 l 14.407,0 C 14.47,32.818 14,30.465 14,28 Z"
         id="path3444" /><path
         inkscape:connector-curvature="0"
         style="fill:#c03a2b"
         d="M 28,49 C 16.42,49 7,39.58 7,28 7,16.42 16.42,7 28,7 39.58,7 49,16.42 49,28 49,39.58 39.58,49 28,49 Z"
         id="path3446" /><path
         inkscape:connector-curvature="0"
         style="fill:#f0c419"
         d="m 31.109,25.011 c 0.244,-0.517 0.391,-1.089 0.391,-1.698 0,-2.209 -1.791,-4 -4,-4 -2.209,0 -4,1.791 -4,4 0,0.61 0.147,1.181 0.391,1.698 C 21.734,25.07 20,26.828 20,29 c 0,2.209 1.791,4 4,4 0.968,0 1.843,-0.358 2.535,-0.929 -0.009,0.796 -0.157,2.114 -0.976,3.045 -0.662,0.753 -1.691,1.135 -3.059,1.135 -0.553,0 -1,0.447 -1,1 0,0.553 0.447,1 1,1 1.975,0 3.513,-0.614 4.571,-1.826 1.206,-1.38 1.445,-3.184 1.464,-4.295 0.682,0.536 1.53,0.87 2.465,0.87 2.209,0 4,-1.791 4,-4 0,-2.172 -1.734,-3.93 -3.891,-3.989 z"
         id="path3448" /></g></g></svg>